<svg width="75" height="76" viewBox="0 0 75 76" fill="none" xmlns="http://www.w3.org/2000/svg">
<g clip-path="url(#clip0_6_889)">
<mask id="mask0_6_889" style="mask-type:luminance" maskUnits="userSpaceOnUse" x="7" y="0" width="61" height="76">
<path d="M67.7271 0H7.36279V76H67.7271V0Z" fill="white"/>
</mask>
<g mask="url(#mask0_6_889)">
<path d="M40.2892 59.9136V73.649C40.2909 73.7154 40.2791 73.7815 40.2547 73.8432C40.2302 73.905 40.1935 73.9611 40.1468 74.0082C40.1002 74.0554 40.0445 74.0926 39.9831 74.1175C39.9217 74.1425 39.8559 74.1548 39.7897 74.1536H42.0578C42.0969 73.9882 42.1175 73.819 42.1191 73.649V61.5136C41.3568 61.1867 40.7168 60.6267 40.2904 59.9136M42.059 58.769C41.9472 58.2482 41.6614 57.7814 41.2489 57.4457C40.8365 57.1099 40.3221 56.9255 39.7909 56.9229H9.69469C9.07511 56.9261 8.48201 57.1752 8.04504 57.6157C7.60807 58.0562 7.36278 58.6523 7.36279 59.2736L7.36279 73.649C7.36278 74.2703 7.60807 74.8664 8.04504 75.3069C8.48201 75.7474 9.07511 75.9965 9.69469 75.9998H39.7885C40.3197 75.9971 40.834 75.8127 41.2465 75.477C41.6589 75.1413 41.9459 74.6744 42.0578 74.1536C42.0969 73.9882 42.1175 73.819 42.1191 73.649L42.1179 59.2736C42.1163 59.1036 42.0957 58.9344 42.0565 58.769M40.2892 73.649C40.2909 73.7154 40.2791 73.7815 40.2547 73.8432C40.2302 73.905 40.1935 73.9611 40.1468 74.0082C40.1002 74.0554 40.0445 74.0926 39.9831 74.1175C39.9217 74.1425 39.8559 74.1548 39.7897 74.1536H9.69469C9.62846 74.1548 9.56267 74.1425 9.50129 74.1175C9.43991 74.0926 9.38421 74.0554 9.33754 74.0082C9.29087 73.9611 9.25419 73.905 9.22973 73.8432C9.20526 73.7815 9.19351 73.7154 9.19517 73.649V59.2736C9.19351 59.2072 9.20526 59.1411 9.22973 59.0794C9.25419 59.0177 9.29087 58.9615 9.33754 58.9144C9.38421 58.8673 9.43991 58.8301 9.50129 58.8051C9.56267 58.7801 9.62846 58.7678 9.69469 58.769H39.813C39.942 58.775 40.0637 58.831 40.1525 58.9251C40.2413 59.0192 40.2903 59.1441 40.2892 59.2736V73.649ZM42.0565 58.769H39.813C39.942 58.775 40.0637 58.831 40.1525 58.9251C40.2413 59.0192 40.2903 59.1441 40.2892 59.2736V73.649C40.2909 73.7154 40.2791 73.7815 40.2547 73.8432C40.2302 73.905 40.1935 73.9611 40.1468 74.0082C40.1002 74.0554 40.0445 74.0926 39.9831 74.1175C39.9217 74.1425 39.8559 74.1548 39.7897 74.1536H42.0578C42.0969 73.9882 42.1175 73.819 42.1191 73.649L42.1179 59.2736C42.1163 59.1036 42.0957 58.9344 42.0565 58.769ZM40.2892 59.9136V73.649C40.2909 73.7154 40.2791 73.7815 40.2547 73.8432C40.2302 73.905 40.1935 73.9611 40.1468 74.0082C40.1002 74.0554 40.0445 74.0926 39.9831 74.1175C39.9217 74.1425 39.8559 74.1548 39.7897 74.1536H42.0578C42.0969 73.9882 42.1175 73.819 42.1191 73.649V61.5136C41.3568 61.1867 40.7168 60.6267 40.2904 59.9136" fill="black"/>
<path d="M12.2402 58.7693H26.2648V29.8462H12.2402V58.7693ZM14.0689 31.6923H24.4348V56.9231H14.0689V31.6923Z" fill="black"/>
<path d="M45.1665 34.769V47.6921H46.9952V36.6152H53.7025V47.6921H55.5312V34.769H45.1665Z" fill="black"/>
<path d="M40.2879 59.9139V62.5723C40.8345 62.9837 41.4556 63.2846 42.1166 63.4585V61.5139C41.3543 61.1869 40.7143 60.627 40.2879 59.9139ZM56.9954 45.8462H43.7023C42.1451 45.8517 40.6538 46.4771 39.5562 47.5849C38.4587 48.6927 37.8447 50.1923 37.8492 51.7539V57.7847C37.847 58.1148 37.8758 58.4445 37.9352 58.7693H39.8129C39.7183 58.4499 39.6731 58.1178 39.6792 57.7847V51.7539C39.6769 50.6805 40.0993 49.65 40.8538 48.8885C41.6083 48.1271 42.6331 47.6969 43.7035 47.6923H56.9954C58.0657 47.6969 59.0906 48.1271 59.8451 48.8885C60.5996 49.65 61.022 50.6805 61.0197 51.7539V57.7847C61.0236 58.1639 60.9702 58.5415 60.8614 58.9047C60.9122 58.9516 60.9526 59.0087 60.9798 59.0723C61.0071 59.136 61.0207 59.2046 61.0197 59.2739V62.0554C61.9595 61.166 62.5774 59.9882 62.776 58.7077C62.8257 58.4026 62.8504 58.0938 62.8496 57.7847V51.7539C62.8542 50.1923 62.2402 48.6927 61.1427 47.5849C60.0451 46.4771 58.5538 45.8517 56.9966 45.8462M40.2879 59.9139V62.5723C40.8345 62.9837 41.4556 63.2846 42.1166 63.4585V61.5139C41.3543 61.1869 40.7143 60.627 40.2879 59.9139Z" fill="black"/>
<path d="M28.0933 67.3844H29.922V65.5382H28.0933V67.3844ZM39.7883 56.9229H30.4252C29.894 56.9255 29.3796 57.1099 28.9671 57.4457C28.5547 57.7814 28.2689 58.2482 28.1571 58.769H42.0564C41.9446 58.2482 41.6588 57.7814 41.2464 57.4457C40.8339 57.1099 40.3195 56.9255 39.7883 56.9229ZM62.776 58.7075C62.6745 58.2836 62.4559 57.8971 62.1452 57.5923C61.8346 57.2875 61.4444 57.0768 61.0197 56.9844V57.7844C61.0236 58.1636 60.9702 58.5412 60.8613 58.9044C60.9122 58.9513 60.9525 59.0084 60.9798 59.0721C61.0071 59.1357 61.0207 59.2044 61.0197 59.2736V73.649C61.0213 73.7154 61.0096 73.7815 60.9851 73.8432C60.9607 73.905 60.924 73.9611 60.8773 74.0082C60.8306 74.0554 60.7749 74.0926 60.7136 74.1175C60.6522 74.1425 60.5864 74.1548 60.5202 74.1536H28.1546C28.2665 74.6744 28.5522 75.1413 28.9647 75.477C29.3771 75.8127 29.8915 75.9971 30.4227 75.9998H60.5189C61.1385 75.9965 61.7316 75.7474 62.1686 75.3069C62.6055 74.8664 62.8508 74.2703 62.8508 73.649V59.2736C62.8512 59.0825 62.8252 58.8921 62.776 58.7075Z" fill="black"/>
<path d="M41.2035 65.5386H8.2771V67.3847H41.2035V65.5386Z" fill="black"/>
<path d="M67.7271 37.231H54.6182V39.0771H67.7271V37.231Z" fill="black"/>
<path d="M67.7259 37.231H65.8972V44.3079H67.7259V37.231Z" fill="black"/>
<path d="M20.1673 0H18.3386V30.7692H20.1673V0Z" fill="black"/>
<path d="M12.2451 7.48172L14.065 7.28962L16.5031 30.6698L14.6832 30.8619L12.2451 7.48172Z" fill="black"/>
<path d="M22.0293 30.5475L26.896 10.8583L28.6711 11.3024L23.8043 30.9916L22.0293 30.5475Z" fill="black"/>
</g>
</g>
<defs>
<clipPath id="clip0_6_889">
<rect width="75" height="76" fill="white"/>
</clipPath>
</defs>
</svg>
