<svg width="68" height="63" viewBox="0 0 68 63" fill="none" xmlns="http://www.w3.org/2000/svg">
<path d="M14.9247 43.5462H26.9439C27.4296 43.5462 27.827 43.143 27.827 42.6501C27.827 42.1572 27.4296 41.754 26.9439 41.754H14.9247C7.66989 41.754 1.76624 35.7634 1.76624 28.3973V14.4805C1.76624 13.8398 2.27847 13.3201 2.90549 13.3201H65.0901C65.7216 13.3201 66.2338 13.8398 66.2338 14.4805V28.3973C66.2338 35.7634 60.3302 41.754 53.0709 41.754H41.0517C40.566 41.754 40.1686 42.1572 40.1686 42.6501C40.1686 43.143 40.566 43.5462 41.0517 43.5462H53.0709C61.3016 43.5462 68 36.7491 68 28.3973V14.4805C68 12.8541 66.693 11.5278 65.0901 11.5278H2.90549C1.30263 11.5278 0 12.8541 0 14.4805V28.3973C0 36.7491 6.69405 43.5462 14.9247 43.5462Z" fill="black"/>
<path d="M22.1751 13.3253H45.8205C46.3062 13.3253 46.7036 12.9221 46.7036 12.4292V6.66266C46.7036 2.98856 43.7584 0 40.1376 0H27.8579C24.2372 0 21.292 2.98856 21.292 6.66266V12.4292C21.292 12.9221 21.6894 13.3253 22.1751 13.3253ZM44.9374 11.5331H23.0582V6.66266C23.0582 3.97878 25.213 1.79224 27.8579 1.79224H40.1376C42.7826 1.79224 44.9374 3.97878 44.9374 6.66266V11.5331Z" fill="black"/>
<path d="M3.88259 62.3703H64.1112C65.1753 62.3703 66.0408 61.4921 66.0408 60.4123V35.6614C66.0408 35.1686 65.6434 34.7653 65.1577 34.7653C64.6719 34.7653 64.2745 35.1686 64.2745 35.6614V60.4123C64.2745 60.5064 64.2039 60.5781 64.1112 60.5781H3.88259C3.79428 60.5781 3.71922 60.5064 3.71922 60.4123V35.6525C3.71922 35.1596 3.32181 34.7563 2.8361 34.7563C2.35038 34.7563 1.95298 35.1596 1.95298 35.6525V60.4123C1.95298 61.4921 2.81843 62.3703 3.88259 62.3703Z" fill="black"/>
<path d="M33.9936 50.707C38.3694 50.707 41.9329 47.0956 41.9329 42.6509C41.9329 38.2061 38.3739 34.5947 33.9936 34.5947C29.6133 34.5947 26.0544 38.2061 26.0544 42.6509C26.0544 47.0956 29.6133 50.707 33.9936 50.707ZM33.9936 36.3914C37.398 36.3914 40.1666 39.2008 40.1666 42.6553C40.1666 46.1099 37.398 48.9192 33.9936 48.9192C30.5892 48.9192 27.8206 46.1099 27.8206 42.6553C27.8206 39.2008 30.5892 36.3914 33.9936 36.3914Z" fill="black"/>
</svg>
