<svg width="61" height="61" viewBox="0 0 61 61" fill="none" xmlns="http://www.w3.org/2000/svg">
<path d="M59.0895 60.1922H1.03856C0.464615 60.1922 0 59.727 0 59.1525V1.0397C0 0.465135 0.464615 0 1.03856 0H59.0895C59.6634 0 60.1281 0.465135 60.1281 1.0397V59.1525C60.1281 59.727 59.6634 60.1922 59.0895 60.1922ZM1.56177 58.6287H58.5663V1.56343H1.56177V58.6287Z" fill="black"/>
<path d="M30.0625 34.3767H20.4264C19.9969 34.3767 19.6455 34.0249 19.6455 33.595V14.2983C19.6455 13.8684 19.9969 13.5166 20.4264 13.5166H30.0625C35.8059 13.5166 40.4795 18.1952 40.4795 23.9447C40.4795 29.6942 35.8059 34.3728 30.0625 34.3728V34.3767ZM21.2034 32.8133H30.0586C34.943 32.8133 38.9138 28.8344 38.9138 23.9486C38.9138 19.0629 34.9391 15.0839 30.0586 15.0839H21.2034V32.8172V32.8133Z" fill="black"/>
<path d="M20.4224 52.54H14.5658C14.1363 52.54 13.7849 52.1882 13.7849 51.7583V8.43943C13.7849 8.00949 14.1363 7.65771 14.5658 7.65771H30.0585C39.0309 7.65771 46.3321 14.9668 46.3321 23.9487C46.3321 32.9306 39.0309 40.2396 30.0585 40.2396H21.2033V51.7583C21.2033 52.1882 20.8519 52.54 20.4224 52.54ZM15.3467 50.9766H19.6415V39.4579C19.6415 39.028 19.9929 38.6762 20.4224 38.6762H30.0585C38.1719 38.6762 44.7704 32.0707 44.7704 23.9487C44.7704 15.8267 38.1719 9.22115 30.0585 9.22115H15.3467V50.9766Z" fill="black"/>
</svg>
