<svg width="79" height="67" viewBox="0 0 79 67" fill="none" xmlns="http://www.w3.org/2000/svg">
<g clip-path="url(#clip0_6_908)">
<path d="M57.8023 64.7205H30.4712V19.6148L28.5881 20.3239V66.9998H59.6878V20.1973L57.8023 19.5008V64.7205ZM38.4889 11.5991L39.2477 13.8785H41.2344L40.4756 11.5991H38.4889ZM48.114 11.5991L47.3552 13.8785H49.3394L50.0982 11.5991H48.114Z" fill="black"/>
<path d="M59.6867 20.1964L57.8024 19.5012L48.6174 16.0936L49.3459 13.8788L50.1046 11.5995L52.969 2.93797L76.185 18.145L71.0077 24.4018L59.6867 20.1964ZM51.7828 0.519333L51.1505 2.41878L48.1128 11.5995L47.3541 13.8788L46.5245 16.3861L46.4119 16.7407L46.2488 17.2332H46.2614L48.0319 17.9056L55.7853 20.7789L57.7961 21.5273L59.6804 22.2237L71.6046 26.6558L78.995 17.7157L55.6525 2.41752L52.7439 0.518066L51.7828 0.519333Z" fill="black"/>
<path d="M12.4022 18.1461L35.6233 2.93782L38.4877 11.5993L39.2465 13.8787L39.9749 16.0947L30.475 19.615L28.5907 20.3241L17.5821 24.4016L12.4022 18.1461ZM36.6287 0L35.837 0.519184L32.9284 2.41864L9.58716 17.7168L16.9751 26.6556L28.5857 22.3376L30.4699 21.6411L32.7943 20.78L40.635 17.8675L42.3309 17.2344L42.016 16.2846L41.2256 13.8787L40.4668 11.5993L37.4317 2.41864L36.7994 0.519184L36.6287 0Z" fill="black"/>
<path d="M58.7433 35.9756H29.8428V37.875H58.7433V35.9756Z" fill="black"/>
<path d="M42.0932 36.9253H40.2102V66.0502H42.0932V36.9253Z" fill="black"/>
<path d="M40.2861 17.0379L42.0215 16.2931L45.7866 25.1478L44.0512 25.8926L40.2861 17.0379Z" fill="black"/>
<path d="M40.2557 36.6432L46.5328 16.38L48.3327 16.9426L42.0556 37.2057L40.2557 36.6432Z" fill="black"/>
<path d="M35.8371 0.519043L32.9285 2.41849H55.6538L52.7452 0.519043H35.8371Z" fill="black"/>
<mask id="mask0_6_908" style="mask-type:luminance" maskUnits="userSpaceOnUse" x="0" y="0" width="79" height="67">
<path d="M79 0H0V67H79V0Z" fill="white"/>
</mask>
<g mask="url(#mask0_6_908)">
<path d="M20.4187 42.3071C18.6648 42.3168 16.9861 43.0217 15.7499 44.2676C14.5138 45.5135 13.8207 47.199 13.8224 48.9552V60.3519C13.8103 61.2271 13.972 62.0959 14.2981 62.908C14.6242 63.72 15.1082 64.4591 15.722 65.0823C16.3358 65.7055 17.0671 66.2003 17.8735 66.538C18.6799 66.8758 19.5452 67.0497 20.4193 67.0497C21.2934 67.0497 22.1588 66.8758 22.9652 66.538C23.7716 66.2003 24.5029 65.7055 25.1167 65.0823C25.7305 64.4591 26.2145 63.72 26.5406 62.908C26.8667 62.0959 27.0284 61.2271 27.0163 60.3519V48.9552C27.018 47.199 26.3249 45.5135 25.0887 44.2676C23.8525 43.0217 22.1726 42.3168 20.4187 42.3071ZM25.132 60.3519C25.132 61.6033 24.6355 62.8034 23.7519 63.6882C22.8682 64.5731 21.6697 65.0702 20.42 65.0702C19.1703 65.0702 17.9718 64.5731 17.0881 63.6882C16.2044 62.8034 15.708 61.6033 15.708 60.3519V48.9552C15.708 47.7039 16.2044 46.5038 17.0881 45.6189C17.9718 44.7341 19.1703 44.237 20.42 44.237C21.6697 44.237 22.8682 44.7341 23.7519 45.6189C24.6355 46.5038 25.132 47.7039 25.132 48.9552V60.3519Z" fill="black"/>
<path d="M25.1319 53.1718C24.2132 52.2331 23.0358 51.5902 21.7502 51.3252C20.4646 51.0601 19.1293 51.1851 17.9151 51.6841C16.7008 52.183 15.6627 53.0333 14.9337 54.1262C14.2046 55.2191 13.8177 56.5049 13.8223 57.8191V60.3517C13.821 62.0876 14.4972 63.7553 15.7066 64.9991V57.8191C15.7066 56.5678 16.203 55.3677 17.0867 54.4828C17.9704 53.598 19.1689 53.1009 20.4186 53.1009C21.6683 53.1009 22.8668 53.598 23.7505 54.4828C24.6342 55.3677 25.1306 56.5678 25.1306 57.8191V64.9991C26.34 63.7553 27.0162 62.0876 27.0149 60.3517V57.8191C27.0162 56.0832 26.34 54.4155 25.1306 53.1718" fill="black"/>
<path d="M6.59631 42.3071C4.8424 42.3168 3.16373 43.0217 1.92755 44.2676C0.691364 45.5135 -0.00168889 47.199 9.91636e-06 48.9552V60.3519C-0.00302264 62.1086 0.6896 63.7948 1.92607 65.041C3.16254 66.2871 4.84198 66.9916 6.59631 67C8.35063 66.9916 10.0301 66.2871 11.2665 65.041C12.503 63.7948 13.1956 62.1086 13.1926 60.3519V48.9552C13.1943 47.199 12.5012 45.5135 11.2651 44.2676C10.0289 43.0217 8.35021 42.3168 6.59631 42.3071ZM11.3096 60.3519C11.3096 61.6033 10.8131 62.8034 9.92946 63.6882C9.04579 64.5731 7.84727 65.0702 6.59757 65.0702C5.34787 65.0702 4.14935 64.5731 3.26568 63.6882C2.38201 62.8034 1.88557 61.6033 1.88557 60.3519V48.9552C1.88557 47.7039 2.38201 46.5038 3.26568 45.6189C4.14935 44.7341 5.34787 44.237 6.59757 44.237C7.84727 44.237 9.04579 44.7341 9.92946 45.6189C10.8131 46.5038 11.3096 47.7039 11.3096 48.9552V60.3519Z" fill="black"/>
<path d="M11.3096 53.1718C10.6983 52.539 9.96606 52.0358 9.15657 51.6921C8.34707 51.3485 7.47681 51.1714 6.59756 51.1714C5.71832 51.1714 4.84805 51.3485 4.03856 51.6921C3.22906 52.0358 2.49687 52.539 1.88556 53.1718C0.67568 54.4153 -0.00096783 56.083 1.89441e-06 57.8191V60.3517C-0.00130621 62.0876 0.674878 63.7553 1.8843 64.9991V57.8191C1.8843 56.5678 2.38074 55.3677 3.26441 54.4828C4.14808 53.598 5.3466 53.1009 6.5963 53.1009C7.846 53.1009 9.04451 53.598 9.92819 54.4828C10.8119 55.3677 11.3083 56.5678 11.3083 57.8191V64.9991C12.5177 63.7553 13.1939 62.0876 13.1926 60.3517V57.8191C13.1939 56.0832 12.519 54.4155 11.3096 53.1718Z" fill="black"/>
</g>
</g>
<defs>
<clipPath id="clip0_6_908">
<rect width="79" height="67" fill="white"/>
</clipPath>
</defs>
</svg>
