<svg width="72" height="62" viewBox="0 0 72 62" fill="none" xmlns="http://www.w3.org/2000/svg">
<path d="M70.6635 48.5987H1.31334C0.5889 48.5987 0 48.0092 0 47.284V1.31474C0 0.589529 0.5889 0 1.31334 0H70.6635C71.3879 0 71.9768 0.589529 71.9768 1.31474V47.284C71.9768 48.0092 71.3879 48.5987 70.6635 48.5987ZM1.86953 46.7272H70.1073V1.8762H1.86953V46.7319V46.7272Z" fill="black"/>
<path d="M35.989 55.9307C35.4748 55.9307 35.0542 55.5097 35.0542 54.995V47.6633C35.0542 47.1486 35.4748 46.7275 35.989 46.7275C36.5031 46.7275 36.9237 47.1486 36.9237 47.6633V54.995C36.9237 55.5097 36.5031 55.9307 35.989 55.9307Z" fill="black"/>
<path d="M21.4303 61.3202C21.0517 61.3202 20.6919 61.0862 20.5516 60.7073C20.374 60.2207 20.6217 59.6826 21.1032 59.5048L35.6528 54.1148C35.8631 54.0353 36.0921 54.0353 36.3024 54.1148L50.852 59.5048C51.3381 59.6826 51.5858 60.2207 51.4035 60.7073C51.2259 61.1939 50.6884 61.4418 50.2024 61.2594L35.9753 55.9864L21.7481 61.2594C21.6406 61.2968 21.5331 61.3155 21.4256 61.3155L21.4303 61.3202Z" fill="black"/>
<path d="M20.044 31.0294C19.8057 31.0294 19.5673 30.9358 19.385 30.7533C19.0204 30.3884 19.0204 29.7942 19.385 29.4292L30.9574 17.8445C31.3219 17.4796 31.9155 17.4796 32.2801 17.8445C32.6446 18.2095 32.6446 18.8037 32.2801 19.1686L20.7077 30.7533C20.5254 30.9358 20.2871 31.0294 20.0487 31.0294H20.044Z" fill="black"/>
<path d="M15.5284 22.9682C15.29 22.9682 15.0516 22.8746 14.8694 22.6921C14.5048 22.3272 14.5048 21.733 14.8694 21.368L22.899 13.3299C23.2635 12.9649 23.8571 12.9649 24.2217 13.3299C24.5862 13.6948 24.5862 14.289 24.2217 14.654L16.1921 22.6921C16.0098 22.8746 15.7714 22.9682 15.533 22.9682H15.5284Z" fill="black"/>
</svg>
