<svg width="72" height="60" viewBox="0 0 72 60" fill="none" xmlns="http://www.w3.org/2000/svg">
<path d="M71.0444 16.3834C70.8061 16.3834 70.5677 16.2898 70.3854 16.1074C51.419 -2.87454 20.5625 -2.87454 1.59611 16.1074C1.23155 16.4723 0.637977 16.4723 0.273419 16.1074C-0.0911395 15.7424 -0.0911395 15.1482 0.273419 14.7833C19.9689 -4.92854 52.0126 -4.92853 71.7034 14.7879C72.068 15.1529 72.068 15.7471 71.7034 16.112C71.5211 16.2945 71.2828 16.3881 71.0444 16.3881V16.3834Z" fill="black"/>
<path d="M61.2227 26.2135C60.9843 26.2135 60.7459 26.1199 60.5636 25.9375C47.0142 12.3736 24.9631 12.3736 11.4137 25.9375C11.0492 26.3024 10.4556 26.3024 10.091 25.9375C9.72649 25.5725 9.72649 24.9783 10.091 24.6134C24.3696 10.3196 47.6031 10.3196 61.8817 24.6134C62.2462 24.9783 62.2462 25.5725 61.8817 25.9375C61.6994 26.1199 61.461 26.2135 61.2227 26.2135Z" fill="black"/>
<path d="M51.4078 36.0387C51.1694 36.0387 50.931 35.9451 50.7487 35.7626C42.6116 27.6168 29.3707 27.6168 21.2336 35.7626C20.869 36.1276 20.2754 36.1276 19.9109 35.7626C19.5463 35.3977 19.5463 34.8035 19.9109 34.4385C28.7771 25.5628 43.2005 25.5628 52.0668 34.4385C52.4313 34.8035 52.4313 35.3977 52.0668 35.7626C51.8845 35.9451 51.6461 36.0387 51.4078 36.0387Z" fill="black"/>
<path d="M35.9928 59.4001C31.1134 59.4001 27.1406 55.4231 27.1406 50.5384C27.1406 45.6537 31.1134 41.6768 35.9928 41.6768C40.8723 41.6768 44.8451 45.6537 44.8451 50.5384C44.8451 55.4231 40.8723 59.4001 35.9928 59.4001ZM35.9928 43.5483C32.1416 43.5483 29.0102 46.6831 29.0102 50.5384C29.0102 54.3937 32.1416 57.5285 35.9928 57.5285C39.8441 57.5285 42.9755 54.3937 42.9755 50.5384C42.9755 46.6831 39.8441 43.5483 35.9928 43.5483Z" fill="black"/>
</svg>
