<?xml version="1.0" encoding="UTF-8"?>
<svg id="Lag_2" data-name="Lag 2" xmlns="http://www.w3.org/2000/svg" viewBox="0 0 662.13 493.23">
  <g id="Components">
    <g id="_7c110344-a397-43e4-bc60-591158cd6860_10" data-name="7c110344-a397-43e4-bc60-591158cd6860@10">
      <g>
        <path d="M32.64,94.06c0-.2.14-.34.34-.34h.68c4.28,0,5.71-2.79,5.71-8.23V14.69c0-5.44-1.43-8.16-5.71-8.16h-1.09C15.51,6.53.68,21.22.68,40.33s12.58,31.15,27.2,34.48c.27.07.34.14.27.41-.07.27-.14.34-.41.27C12.85,72.09,0,59.44,0,40.33S15.1,5.85,32.58,5.85h9.79c3.81,0,10.68-.34,14.21-.34,17.68,0,33.19,6.6,33.19,25.91,0,15.3-9.52,24.69-21.83,27.75l24.48,27c3.81,4.22,7.28,7.55,9.86,7.55h.27c.2,0,.34.14.34.34s-.14.34-.34.34h-11.7c-.14,0-.41-.2-.41-.2l-29.92-34c-.61.07-1.16.07-1.77.07h-10c-1.84,0-3.06.14-3.06,2.65v22.58c0,5.44,1.43,8.23,5.51,8.23h.61c.2,0,.34.14.34.34s-.14.34-.34.34h-18.84c-.2,0-.34-.14-.34-.34ZM82.77,32.03c0-15.91-10.2-25.84-25.64-25.84h-2.04c-7.82,0-9.39,2.86-9.39,8.16v42.37c0,2.65,1.22,2.86,3.06,2.86h9.38c14.49,0,24.62-10.61,24.62-27.54Z" style="fill: #e6ded3;"/>
        <path d="M148,98.95v-.61c0-2.79-1.36-3.94-4.56-3.94h-42.64c-.2,0-.34-.14-.34-.34s.14-.34.34-.34h.61c4.28,0,5.71-2.79,5.71-8.23V14.69c0-5.44-1.43-8.16-5.71-8.16h-.61c-.2,0-.34-.14-.34-.34s.14-.34.34-.34h42.64c3.26,0,4.49-1.36,4.49-3.74l-.07-1.77c0-.2.07-.34.34-.34.2,0,.34.07.34.34l1.43,25.78c0,.27-.14.34-.34.34s-.34-.14-.34-.34c-2.24-12.45-6.87-19.59-17.55-19.59h-12.38c-4.49,0-5.92,2.72-5.92,8.16v24.82c0,2.52,1.16,2.72,2.79,2.72h13.4c7.41,0,11.9-4.62,11.9-10.88v-.68c0-.27.14-.34.34-.34s.34.07.34.34v23.87c0,.2-.07.34-.34.34s-.34-.14-.34-.34v-.68c0-6.26-4.49-10.95-11.9-10.95h-13.4c-1.63,0-2.79.07-2.79,2.72v39.85c0,5.44,1.43,8.23,5.92,8.23h12.38c11.29,0,15.71-8.09,17.61-20.61,0-.14.07-.27.34-.27.2,0,.34.07.34.34l-1.36,25.78c0,.27-.14.34-.34.34-.27,0-.34-.14-.34-.34Z" style="fill: #e6ded3;"/>
        <path d="M155.28,69.78c0-10.68,6.73-19.59,14.08-19.59,3.33,0,5.17,1.97,5.17,4.42,0,3.33-2.65,4.56-5.65,5.24-7.41,1.43-11.02,5.44-11.02,13.6,0,11.7,9.93,21.01,23.05,21.01,14.15,0,24.14-10.54,24.14-23.46s-6.8-18.7-18.09-26.12c-13.74-8.91-20.67-14.83-20.67-24.76,0-7.96,5.78-15.23,15.85-15.23,6.73,0,14.55,3.81,19.25,19.52l1.43-24.08c0-.27.14-.34.34-.34s.34.14.34.34c-.07.82-.07,1.22-.07,1.7,0,2.45,1.22,3.81,4.35,3.81h43.66c3.13,0,4.35-1.36,4.35-3.81,0-.34,0-.88-.07-1.7,0-.2.14-.34.34-.34s.34.07.34.34l1.5,25.78c0,.27-.14.34-.34.34s-.34-.14-.34-.34c-2.11-12.17-7.07-19.59-16.19-19.59h-3.13c-3.6,0-5.1,2.31-5.1,8.16v70.8c0,5.44,1.43,8.23,5.44,8.23h.68c.2,0,.34.14.34.34s-.14.34-.34.34h-18.84c-.2,0-.34-.14-.34-.34s.14-.34.34-.34h.61c4.28,0,5.71-2.79,5.71-8.23V14.69c0-5.85-1.5-8.16-5.37-8.16h-2.86c-9.11,0-14.15,7.62-16.12,19.59,0,.2-.14.34-.34.34-.27,0-.41-.07-.48-.27-3.88-13.4-9.45-20.2-18.7-20.2-6.12,0-11.22,4.42-11.22,11.22,0,8.5,5.78,13.6,19.52,22.51,10.2,6.46,19.99,13.74,19.99,28.02,0,15.17-11.15,27.61-28.7,27.61-16.25,0-26.86-11.49-26.86-25.57Z" style="fill: #e6ded3;"/>
        <path d="M244.72,94.06c0-.2.14-.34.34-.34h.34c3.13,0,7.75-4.35,12.51-15.23l31.9-73.31c.07-.14.14-.27.48-.27.27,0,.34.14.41.27l37.75,79.57c2.86,5.92,6.12,8.98,9.86,8.98h.2c.2,0,.34.14.34.34s-.14.34-.34.34h-19.52c-.2,0-.34-.14-.34-.34s.14-.34.34-.34h.34c2.52,0,3.88-.88,3.88-2.92,0-1.22-.48-2.86-1.5-5.03l-15.17-32.24c-1.29-2.72-2.79-3.2-4.49-3.2h-28.36c-2.11,0-3.26,1.02-4.28,3.4l-9.45,21.9c-1.9,4.42-2.72,7.89-2.72,10.54,0,5.51,3.33,7.55,7.07,7.55h.88c.2,0,.34.14.34.34s-.14.34-.34.34h-20.13c-.2,0-.34-.14-.34-.34ZM303.89,48.56c0-.41-.2-1.09-.61-1.9l-15.98-34.07-14.89,34.21c-.34.82-.41,1.29-.41,1.77,0,.95.82,1.16,1.9,1.16h27.95c1.16,0,2.04-.14,2.04-1.16Z" style="fill: #e6ded3;"/>
        <path d="M337.9,71.68V14.69c0-5.44-1.43-8.16-5.71-8.16h-.61c-.2,0-.34-.14-.34-.34s.14-.34.34-.34h19.04c.2,0,.34.14.34.34s-.14.34-.34.34h-.88c-4.01,0-5.44,2.72-5.44,8.16v57.6c0,13.26,5.3,21.35,17.89,21.35,11.9,0,18.91-7.28,18.91-23.87V20.13c0-9.72-3.13-13.6-9.66-13.6h-.07c-.2,0-.34-.14-.34-.34s.14-.34.34-.34h19.04c.2,0,.34.14.34.34s-.14.34-.34.34h-.14c-4.49,0-8.37,4.01-8.37,13.47v49.51c0,15.64-5.85,25.84-21.76,25.84-14.69,0-22.24-7.89-22.24-23.67Z" style="fill: #e6ded3;"/>
        <path d="M439.31,85.35l-9.73-11.29c-8.98-11.15-12.58-13.81-18.36-13.81h-3.6c-1.84,0-3.06.14-3.06,2.65v22.58c0,5.44,1.43,8.23,5.51,8.23h.61c.2,0,.34.14.34.34s-.14.34-.34.34h-18.77c-.2,0-.34-.14-.34-.34s.14-.34.34-.34h.61c4.28,0,5.71-2.79,5.71-8.23V14.69c0-5.44-1.43-8.16-5.71-8.16h-.61c-.2,0-.34-.14-.34-.34s.14-.34.34-.34h9.39c3.74,0,10.61-.34,14.15-.34,17.75,0,33.26,6.6,33.26,25.91s-14.62,28.7-30.74,28.83c6.6,1.29,12.65,5.58,19.79,13.94l11.49,13.12,1.77,1.97L487.66,5.17c.07-.14.14-.27.48-.27.27,0,.34.14.41.27l37.75,79.57c2.86,5.92,6.12,8.98,9.86,8.98h.2c.2,0,.34.14.34.34s-.14.34-.34.34h-19.52c-.2,0-.34-.14-.34-.34s.14-.34.34-.34h.34c2.58,0,3.88-.88,3.88-2.92,0-1.22-.48-2.92-1.43-5.03l-15.23-32.24c-1.29-2.72-2.79-3.2-4.49-3.2h-28.36c-2.11,0-3.26,1.09-4.28,3.4l-15.71,36.18c17.07,18.91,22.58,22.31,28.29,22.31,3.54,0,5.44-1.36,6.6-3.47.34-.61.68-.82,1.02-.82s.54.27.54.68c0,.48-.34.95-.82,1.5-1.29,1.43-4.69,2.92-9.25,2.92-12.85,0-22.99-8.84-38.63-27.68ZM441.62,32.03c0-15.91-10.13-25.84-25.57-25.84h-2.11c-7.82,0-9.39,2.86-9.39,8.16v42.37c0,2.65,1.22,2.86,3.13,2.86h9.39c14.42,0,24.55-10.61,24.55-27.54ZM501.74,48.56c0-.41-.2-1.09-.61-1.9l-15.98-34.07-14.83,34.21c-.34.82-.48,1.29-.48,1.77,0,.95.82,1.16,1.97,1.16h27.88c1.16,0,2.04-.14,2.04-1.16Z" style="fill: #e6ded3;"/>
        <path d="M581.19,94.94l-40.19-81.61v65.83c0,10.75,5.03,14.55,11.15,14.55h.61c.2,0,.34.14.34.34s-.14.34-.34.34h-21.42c-.2,0-.34-.14-.34-.34s.14-.34.34-.34h.2c4.49,0,8.77-4.49,8.77-13.74V18.7c0-7.41-1.97-12.17-7.69-12.17h-.14c-.2,0-.34-.14-.34-.34s.14-.34.34-.34h11.49c.27,0,.34.14.41.27l37.13,76.24V21.08c0-10.75-5.1-14.55-11.15-14.55h-.68c-.2,0-.34-.14-.34-.34s.14-.34.34-.34h21.42c.2,0,.34.14.34.34s-.14.34-.34.34h-.14c-4.49,0-8.77,4.42-8.77,13.74v74.74c0,.27-.14.34-.34.34-.34,0-.48-.07-.68-.41Z" style="fill: #e6ded3;"/>
        <path d="M612.75,94.06c0-.2.14-.34.34-.34h.61c4.28,0,5.71-2.79,5.71-8.23V14.69c0-5.85-1.5-8.16-5.37-8.16h-2.92c-9.04,0-14.15,7.62-16.12,19.59,0,.2-.14.34-.34.34s-.34-.07-.34-.34l1.5-25.78c0-.27.14-.34.34-.34s.34.14.34.34c-.07.82-.07,1.22-.07,1.7,0,2.45,1.22,3.81,4.35,3.81h43.59c3.2,0,4.42-1.36,4.42-3.81,0-.34,0-.88-.07-1.7,0-.2.14-.34.34-.34s.34.07.34.34l1.43,25.78c0,.27-.14.34-.34.34-.14,0-.27-.07-.34-.34-2.04-12.11-7-19.59-16.12-19.59h-3.13c-3.6,0-5.17,2.31-5.17,8.16v70.8c0,5.44,1.43,8.23,5.51,8.23h.61c.2,0,.34.14.34.34s-.14.34-.34.34h-18.77c-.2,0-.34-.14-.34-.34Z" style="fill: #e6ded3;"/>
      </g>
      <path d="M7.95,405.52v-.44c0-.44,0-.66.44-1.32l34.48-52.93c40.63-63.25,68.52-112.23,68.52-157.91,0-38.43-21.96-53.81-47.66-53.81s-45.24,19.33-45.24,44.8c0,19.11,9.44,28.33,27.01,31.84,10.32,1.98,15.59,5.05,15.59,12.52,0,5.93-4.61,10.1-11.64,10.1-17.57,0-34.92-18.89-34.92-48.1,0-33.82,23.28-57.32,56.22-57.32s54.69,19.55,54.69,59.52c0,29.87-17.13,66.33-41.51,100.59l-39.97,60.18-27.23,42.17h79.06c23.94,0,40.19-8.13,44.36-46.34.22-.88.44-1.32,1.32-1.32.66,0,1.1.22.88,1.32l-5.71,56c-.22,1.54-.44,1.54-1.54,1.54H9.05c-.66,0-1.1-.44-1.1-1.1Z" style="fill: #e6ded3;"/>
      <path d="M152,409.91c-.22-.88,0-1.1.66-1.32,70.94-20.64,117.06-83.46,125.4-148.02-17.57,36.02-52.27,55.12-83.89,55.12-46.78,0-84.11-34.92-84.11-87.63s41.07-95.1,92.24-95.1,91.58,36.46,91.58,107.17c0,81.92-63.69,151.54-140.56,170.42-.66.22-1.1,0-1.32-.66ZM199,309.32c32.72,0,65.01-19.77,79.72-55.56.44-4.61.66-9,.66-13.62,0-62.37-30.31-104.98-76.65-104.98s-79.06,37.77-79.06,89.17,35.36,84.99,75.33,84.99Z" style="fill: #e6ded3;"/>
      <path d="M465.57,274.63c0-73.35,36.02-141.66,100.37-141.66,55.56,0,96.19,53.37,96.19,135.95,0,73.35-36.68,141.43-100.59,141.43-56.22,0-95.97-53.37-95.97-135.72ZM648.07,271.77c0-85.21-37.34-136.6-84.33-136.6s-84.11,52.93-84.11,136.6,37.34,136.38,84.11,136.38,84.33-52.71,84.33-136.38Z" style="fill: #e6ded3;"/>
      <path d="M278.44,274.63c0-73.35,36.02-141.66,100.37-141.66,55.56,0,96.19,53.37,96.19,135.95,0,73.35-36.68,141.43-100.59,141.43-56.22,0-95.97-53.37-95.97-135.72ZM460.94,271.77c0-85.21-37.34-136.6-84.33-136.6s-84.11,52.93-84.11,136.6,37.34,136.38,84.11,136.38,84.33-52.71,84.33-136.38Z" style="fill: #e6ded3;"/>
      <g>
        <g>
          <path d="M205.8,486.97h-15.72l-3.4,6.26h-3.1l12.82-23.32h3.13l12.82,23.32h-3.16l-3.4-6.26ZM204.44,484.44l-6.5-11.96-6.5,11.96h12.99Z" style="fill: #e6ded3;"/>
          <path d="M234.62,472.45h-11.03v20.79h-2.8v-20.79h-10.99v-2.53h24.82v2.53Z" style="fill: #e6ded3;"/>
          <path d="M273.39,477.31c0,4.66-3.56,7.39-8.93,7.39h-12.79v8.53h-2.8v-23.32h15.59c5.36,0,8.93,2.73,8.93,7.4ZM270.52,477.31c0-3.26-2.46-4.8-6.26-4.8h-12.59v9.59h12.59c3.8,0,6.26-1.53,6.26-4.8Z" style="fill: #e6ded3;"/>
          <path d="M295.07,486.97h-15.72l-3.4,6.26h-3.1l12.82-23.32h3.13l12.82,23.32h-3.16l-3.4-6.26ZM293.7,484.44l-6.5-11.96-6.5,11.96h12.99Z" style="fill: #e6ded3;"/>
          <path d="M327.68,493.23l-7.73-8.93h-11.09v8.93h-2.83v-23.32h15.66c5.2,0,8.93,2.6,8.93,7.2,0,4.06-2.93,6.6-7.23,7.09l7.96,9.03h-3.66ZM321.48,481.71c3.76,0,6.26-1.43,6.26-4.6s-2.5-4.6-6.26-4.6h-12.66v9.19h12.66Z" style="fill: #e6ded3;"/>
          <path d="M358.45,493.23l-11.06-12.52-7.76,6.06v6.46h-2.8v-23.32h2.8v13.66l17.65-13.66h4l-11.63,9.16,12.36,14.16h-3.56Z" style="fill: #e6ded3;"/>
          <path d="M397.22,490.63v2.6h-20.65v-23.32h2.8v20.72h17.85Z" style="fill: #e6ded3;"/>
          <path d="M420.74,486.97h-15.72l-3.4,6.26h-3.1l12.82-23.32h3.13l12.82,23.32h-3.16l-3.4-6.26ZM419.37,484.44l-6.5-11.96-6.5,11.96h12.99Z" style="fill: #e6ded3;"/>
          <path d="M456.48,469.92v23.32h-2.46l-19.59-19.75v19.75h-2.73v-23.32h3.03l19.02,19.22v-19.22h2.73Z" style="fill: #e6ded3;"/>
          <path d="M486.76,490.63v2.6h-22.55v-23.32h22.22v2.6h-19.42v7.56h16.46v2.6h-16.46v7.96h19.75Z" style="fill: #e6ded3;"/>
        </g>
        <rect x="7.95" y="480.82" width="157.53" height="1.42" style="fill: #e6ded3;"/>
        <rect x="506.04" y="480.72" width="156.08" height="1.42" style="fill: #e6ded3;"/>
      </g>
    </g>
  </g>
</svg>